<?xml version="1.0" encoding="utf-8"?>
<!-- Generator: Adobe Illustrator 23.0.1, SVG Export Plug-In . SVG Version: 6.00 Build 0)  -->
<svg version="1.1" id="レイヤー_1" xmlns="http://www.w3.org/2000/svg" xmlns:xlink="http://www.w3.org/1999/xlink" x="0px"
	 y="0px" viewBox="0 0 617.4 130.4" style="enable-background:new 0 0 617.4 130.4;" xml:space="preserve">
<style type="text/css">
	.st1{fill:#eeeeef;}
	.st2{fill:#158411;}
</style>
<path class="st0" d="M124.5,82.9V59.4H112v3.5H97.9V22h26.7v-5.8c0-0.3-0.1-3.4-0.3-5.2l-0.2-2.2l12,0.1c3.1,0,3.3,2.5,3.3,3
	c0,0.6-0.2,1.2-0.7,2.4c0,0,0,0,0,0V22h26.8v40.9h-14.4v-3.5h-12.4v23.5H124.5z M151.2,51.2V30.1h-12.4v21.1H151.2z M124.6,51.2
	V30.1h-12.5v21.1H124.6z"/>
<path class="st1" d="M163.5,24v36.9h-10.4v-3.5h-16.4v23.5h-10.2V57.4H110v3.5H99.9V24h26.7v-7.8c0-0.1-0.1-3.4-0.3-5.4l9.8,0.1
	c0.5,0,1.3,0,1.3,1c0,0.4-0.6,1.8-0.7,2.1v10C136.7,24,163.5,24,163.5,24z M126.6,53.2V28.1h-16.5v25.1H126.6z M136.8,28.1v25.1
	h16.4V28.1H136.8z"/>
<path class="st0" d="M207.2,82.4l-2.3-9.5c-8.9,2.4-24.6,6-29,7c-0.6,0.6-1.4,0.9-2.2,0.9h-0.1l-0.1,0c-1.3-0.2-2.2-1-2.4-2.1
	l-2.6-9.4l3.2-0.1c2-0.1,4.9-0.2,12-1.2v-7.2H171v-8.2h12.6v-4.1h-11.8V11.7h35.5v-0.2h36v6.9l-0.8,0.9c-1.7,1.9-5.2,5.9-10.7,10.1
	c1.7,1,3.2,2,4.5,2.9l2.1,1.5l-4.6,4h11l-0.9,2.6c-2.6,7.8-6.3,12.9-9.7,16.9l-0.9,1.1l-4.1-1.7v16.5c0,6.5-2.8,9.2-9.8,9.2H207.2z
	 M208.1,73.6c2.4,0.6,5.2,0.7,7.1,0.7c0.3,0,0.4,0,0.5,0c0.1-0.4,0.1-1.3,0.1-1.7V45.8h-6.6v2.8h-12v4h12v8.2h-12v5.1
	c3.6-0.6,6.3-1.1,8.4-1.6c0.9-0.2,1.8-0.4,2.6-0.5l2.7-0.5l-1.2,8.4l-1.2,0.4c-0.9,0.3-2.1,0.6-3.3,0.9L208.1,73.6z M229.3,46.2
	c0-0.1,0-0.2,0.1-0.3h-0.1V46.2z M196.9,40.4v-6.5h-0.5v6.5H196.9z M184.5,40.4v-6.5h-0.3v6.5H184.5z M222.1,37.6
	c-2.7-2.8-6.9-6.8-11.5-9.6l-1.3-0.8v10.4H222.1z M209.2,26.1l4.2-5.4l1.4,0.5c3.1,1.2,5.2,2.2,6.9,2.9c0.2,0.1,0.3,0.2,0.5,0.2
	c1.6-1.8,2.7-3.3,3.6-4.8h-16.7V26.1z M196.9,25.7v-5.9h-0.5v5.9H196.9z M184.5,25.7v-5.9h-0.3v5.9H184.5z"/>
<path class="st1" d="M195.2,54.6h12v4.2h-12v9.4c6.6-1,10.3-1.9,13.4-2.5L208,70c-7.5,2.2-29.3,7.3-33.1,8.1
	c-0.3,0.4-0.7,0.7-1.2,0.7c0,0-0.7-0.1-0.7-0.5l-2-7.1c2.2-0.1,5.2-0.1,14.6-1.5V58.8H173v-4.2h12.6v-8.1h-11.8V13.7h33.4v32.9h-12
	L195.2,54.6L195.2,54.6z M186.5,27.7v-9.9h-4.3v9.9H186.5z M182.2,31.9v10.5h4.3V31.9H182.2z M198.9,27.7v-9.9h-4.5v9.9H198.9z
	 M194.4,31.9v10.5h4.5V31.9H194.4z M228.4,39.7h13.7c-2.6,7.8-6.4,12.8-9.3,16.3l-4.3-1.8c2.2-5.5,2.7-6.7,3.3-10.3h-4.5v29.3
	c0,5.5-2,7.2-7.8,7.2h-10.7l-1.2-4.9c2.4,0.6,5.2,0.8,7.6,0.8c2.5,0,2.6-1.6,2.6-3.7V43.8H209v-4.2h17.6c-1.5-1.8-7.9-8.9-15-13.3
	l2.5-3.2c4.3,1.7,6.6,2.8,8.7,3.7c3.3-3.6,4.9-6.1,6.4-9.2h-19.9v-4.1h32v4.1c-1.7,1.9-6.1,7-13.1,12c2.7,1.5,5,2.9,7,4.3
	L228.4,39.7z"/>
<path class="st0" d="M273.9,82.9V42.4h-9.8v33.5h-14.2V34.3H274v-6.7h-29.7v-8.2H274V16c0-0.9-0.1-3.8-0.2-5l-0.2-2.2l12.7,0.1
	c1.3,0,2.5,1.1,2.5,2.5c0,0.2,0,0.3-0.3,1.8v6.2h29.6v8.2h-29.7v6.7h24.1v31.2c0,9.2-5.6,10-10.8,10H290l-1.6-5.1v12.5H273.9z
	 M290.2,66.8c1,0.1,4.6,0.5,6.5,0.5c0.8,0,1.1,0,1.3-0.1c0-0.2,0.1-0.5,0.1-1.1V42.4h-9.7v24.2L290.2,66.8z"/>
<path class="st1" d="M316.1,21.4v4.2h-29.7v10.7h24.1v29.2c0,6.9-3.2,8-8.8,8h-10.2l-1.5-4.7c1.8,0.2,4.9,0.5,6.7,0.5
	c2.8,0,3.4-0.5,3.4-3.2V40.4h-13.7v40.5h-10.5V40.4h-13.8v33.5h-10.2V36.3H276V25.6h-29.7v-4.2H276V16c0-1-0.1-3.9-0.2-5.2l10.5,0.1
	c0.2,0,0.5,0.2,0.5,0.5c0,0.1-0.3,1.6-0.3,1.6v8.4C286.5,21.4,316.1,21.4,316.1,21.4z"/>
<path class="st0" d="M319.3,80.5v-8.2h18.8l0-1.6c-0.2-11.2-2.5-24.8-6.1-35.4l-0.6-1.8l7.6-3l0.9,1.4c5.3,8.5,11.3,23.5,13.7,34.1
	l0.4,1.7l-12.4,4.5h13.7c4.3-11.4,6.4-21.2,9.8-37.1l1.1-5.1h-43.8V22h26.2v-6.6c0-0.7-0.1-1.7-0.1-3l-0.2-3.7l12.5,0.1
	c1.6,0,2.7,1.2,2.7,2.8c0,0.7-0.2,1.2-0.3,1.6c0,0,0,0,0,0V22h26.4v8.1h-18.8l9,2.5c1.6,0.4,2.2,1.6,2.2,2.6c0,1.1-0.7,1.9-1.1,2.5
	c-4.1,12.3-8.9,23.9-14.4,34.5h26.3v8.3H319.3z"/>
<path class="st1" d="M390.7,74.3v4.2h-69.4v-4.2h35.3c5.1-13.1,7.2-23.8,11.3-42.9l11.3,3.1c0.4,0.1,0.7,0.3,0.7,0.7
	c0,0.5-0.7,1.2-0.9,1.5c-5.3,16-11.1,28.5-15.9,37.5h27.6V74.3z M387.5,24v4.1h-63.2V24h26.2v-8.6c0-1.1-0.1-2.6-0.2-4.7l10.4,0.1
	c0.5,0,0.7,0.3,0.7,0.8s-0.2,1-0.3,1.4v11H387.5z M338.2,33c5.2,8.4,11.1,23.2,13.4,33.5l-11.5,4.2c-0.2-11.7-2.6-25.3-6.2-36
	L338.2,33z"/>
<path class="st0" d="M450.5,82.8v-3.5l-40.2-0.1v3.5h-13.9V11.6h68.2v71.2H450.5z M450.5,71.1v-5.6l-4.2,5.6H450.5z M444.2,71.1
	l-0.5-0.6c-1.8-2-5-5.5-10.8-10.2c-7,5.6-14.4,8.8-19.7,10.7H444.2z M410.5,71.1l-0.2-0.3v0.3H410.5z M410.3,63.2
	c4.6-2.1,9.4-4.8,14.1-9.3c-3.5-2.4-8-5.3-12.9-7.4l-1.2-0.5V63.2z M441.7,51.4c4.1,2.5,6.9,4.5,8.8,6V36.5
	C448.6,40.9,445.8,46.2,441.7,51.4z M420.4,41c2.7,1,6.3,2.5,10.7,4.7c1.1-1.8,2.7-4.4,4.2-7.9l-9.3,4.1c0,0-0.5-3.2-0.5-3.5
	L420.4,41z M410.3,44.2l3.1-5.2c-0.5-2.2-1.3-5.2-3.1-8.9V44.2z M415.2,21.7c3,2.6,6.3,6.4,8.9,9.9c-0.7-2.6-1.6-5.4-2.8-8.1
	l-0.8-1.8l3.8-1.9h-14v3.4l3.8-2.4L415.2,21.7z M428.6,19.8c3.6,3.7,7,8.5,9,11.6c0.9-2.8,1.6-5.9,2.2-9.4l0.4-2.2H428.6z
	 M450.5,24.1v-4.3h-9.4L450.5,24.1z"/>
<path class="st1" d="M408.3,77.2v3.5h-9.9V13.6h64.2v67.2h-10.1v-3.5L408.3,77.2L408.3,77.2z M452.5,73.1V17.8h-44.2v55.3H452.5z
	 M409,66c6.8-2.9,12.7-6.2,18.5-12.3c-4.3-3.1-9.6-6.6-15.2-9l2.2-3.7c2.7,0.9,8.3,2.8,17.3,7.2c1.9-2.9,7.6-11.4,10-25.9l9.8,4.5
	c0.4,0.2,0.4,0.4,0.4,0.7c0,0.7-0.4,1-0.7,1.3c-1.6,4.6-5.1,14.5-12.6,23.1c7.5,4.3,11,7.4,12.8,8.9l-6.3,8.4
	c-1.9-2.1-5.5-6.1-12.3-11.4c-7.2,6.2-15.2,9.6-21.1,11.7L409,66z M413.9,23.2c4,3.4,8.5,9.2,11.1,13.1l-9.2,4.8
	c-0.4-2.5-1.3-8-5.6-15.5L413.9,23.2z M426.8,20.8c4.3,4.3,8.4,10.4,10.5,13.8l-9.7,4.3c-0.7-4.5-1.9-10.6-4.5-16.3L426.8,20.8z"/>
<path class="st0" d="M519.8,83v-3.5h-28.9V83h-14.2V52.9h-8.2v-8.1h6.2V30.2h-6.2v-8.1h6.2v-7.7h23.4c0-1.6,0-2.4-0.1-3.4l-0.2-2.2
	l12.4,0.2c1.5,0,2.9,1.3,2.9,2.8c0,0.7-0.3,1.4-0.6,1.9v0.6h22.9v7.7h6.5v8.1h-6.5v7h0.8v7.6h5.7v8.1H534V83H519.8z M519.7,71.3
	v-1.6h-28.8v1.6H519.7z M519.7,61.5v-1.2h-28.8v1.2H519.7z"/>
<path class="st1" d="M539.9,24.1v4.1h-6.5v7.7h-22.9v3.3h23.7v4.2h-23.7v3.4h29.4v4.1h-69.4v-4.1h29.6v-3.4h-23.4v-4.2h23.4v-3.3
	h-23.4v-4.2h23.4v-3.5h-29.6v-4.1h29.6v-3.5h-23.4v-4.2h23.4c0-3.2,0-4.1-0.1-5.5l10.2,0.2c0.5,0,0.9,0.4,0.9,0.8s-0.4,1-0.6,1.4
	v3.1h22.9v7.7C533.4,24.1,539.9,24.1,539.9,24.1z M488.9,77.5V81h-10.2V54.1H532V81h-10.2v-3.5H488.9z M521.7,63.5v-5.2h-32.8v5.2
	H521.7z M521.7,73.3v-5.6h-32.8v5.6H521.7z M523.1,24.1v-3.5h-12.6v3.5H523.1z M510.4,28.2v3.5H523v-3.5H510.4z"/>
<path class="st0" d="M567,80.4c-0.2-1.5-0.4-2.8-1.3-6c-8,3.3-9.8,4-16.2,6.5c-0.6,0.6-1.5,1.4-2.7,1.4c0,0-1.3,0-2.1-0.8l-0.3-0.3
	l-3.6-10l2.5-0.3c0.4-0.1,0.8-0.1,1.2-0.1c0.5-0.1,1-0.1,1.6-0.2V35.7l-1.4,0.9l-4.2-7.3l1.3-1.1c3.5-2.9,9.8-9,12.8-17.5l0.5-1.3
	h14.3l0.4,1.4c0.9,2.8,2.7,5.9,4.5,8.3v-1.9h13.7v-1.6c0-0.3,0-1.1-0.1-1.9c-0.1-1.1-0.1-2.3-0.1-2.9v-2L600.2,9
	c1.8,0,2.4,2,2.4,2.9c0,0.7-0.2,1.5-0.4,2v3.4h13.5v19.1h-5.8v15.8h-17.6V54H614v28.7h-13.7v-3.3l-8,0.1v3.3h-13.6v-5.9l-11.2,6.8
	L567,80.4z M570.7,59.5c2.6,3.6,5.8,8.6,8,12.7V36.4H576v23.1H570.7z M600.3,71.3v-9.1h-8v9.1H600.3z M559.3,67.5
	c1.2-0.3,2.6-0.7,3.9-1c-1-3-1.6-4.3-2-5.2l-0.8-1.8h-1.1V67.5z M563,51.4V49h-3.6v2.4H563z M596.3,44.2v-7.3h-4v7.3H596.3z
	 M563,40.8v-2.3h-3.6v2.3H563z M571.6,30.2c-1.2-0.9-2.5-2-3.9-3.3c0,0.1,0,0.2-0.1,0.2v3.1H571.6z M554.9,30.2v-0.8
	c0-0.1,0-0.2,0-0.3c-0.5,0.4-0.9,0.8-1.3,1.1H554.9z M602.6,28.8v-3.2h-15.1v3.2H602.6z M563.8,22.8c-0.4-0.5-0.8-1-1.2-1.4
	c-0.4,0.5-0.8,0.9-1.2,1.4L563.8,22.8z"/>
<path class="st1" d="M590.3,77.5v3.3h-9.6V34.4h-4.5v-9l-2.7,3.7c-3.2-2.3-8.1-7.1-10.9-11.1c-1.3,1.9-2.4,3.3-6,6.7l9,0.1
	c0.4,0,0.4,0.4,0.4,0.6c0,0.3,0,0.4-0.3,1.4v5.4h8.3v25.3h-16.7V70c0.7-0.1,5.7-1.4,8.5-2.2c-1.5-4.7-2.3-6.4-2.8-7.5l4-2.3
	c3.1,3.7,8.2,11.7,10.9,17l-8.9,5.4c-0.3-1.9-0.5-3.4-2-8.7c-10.2,4.2-11.4,4.7-18.7,7.5c-0.3,0.4-1,1.1-1.5,1.1
	c-0.1,0-0.6-0.1-0.7-0.2l-2.6-7.2c1.5-0.2,2.4-0.2,4.5-0.7v-40h8.9v-2.8c0-0.7-0.2-4-0.3-4.6c-5.9,5.6-9.1,7.6-11.3,9l-2.3-4
	c4.6-3.8,10.5-10.2,13.4-18.4h11.4c1.6,5.2,5.9,10.8,8.4,13.1v-5.2h13.7v-3.6c0-0.7-0.2-3.8-0.2-4.8l10.5,0.1c0.2,0,0.4,0.7,0.4,0.9
	c0,0.4-0.2,1.1-0.4,1.6v5.8h13.5v15.1h-5.8v15.8h-17.6V56H612v24.7h-9.7v-3.3L590.3,77.5L590.3,77.5z M557.4,42.8h7.6v-6.3h-7.6
	V42.8z M565,47h-7.6v6.4h7.6V47z M585.5,30.8h19.1v-7.2h-19.1V30.8z M598.3,34.9h-8v11.3h8V34.9z M602.3,73.3V60.2h-12v13.1H602.3z"
	/>
<polygon class="st0" points="176.5,126.4 168,110.7 168,126.4 160.2,126.4 160.2,97.5 168,97.5 176.5,113.2 176.5,97.5 184.2,97.5 
	184.2,126.4 "/>
<path class="st1" d="M162.3,99.5h4.5l11.7,21.6V99.5h3.7v24.9h-4.5L166,102.8v21.6h-3.8V99.5H162.3z"/>
<path class="st0" d="M195.3,126.8c-5.5,0-7.4-3.5-7.4-6.8c0-3.8,2.2-5.3,3.1-5.9c0.2-0.1,0.4-0.2,0.6-0.3h-3.1l0.2-2.2
	c0.4-4.9,4.8-7,9-7c5.6,0,9,3.2,9,8.3v8.1c0,0.3,0.1,1.6,0.4,2.4l1.1,2.7l-6.2,0.2l-0.6-0.5c-0.1-0.1-0.3-0.2-0.4-0.4
	C199.7,126.2,197.9,126.8,195.3,126.8z M199.1,117.3c-3.8,0.4-3.8,1.9-3.8,2.5c0,0.6,0,1.1,1.3,1.1c0.1,0,1.4,0,2.5-0.8V117.3z
	 M197.7,110.3c-0.5,0-1.4,0-1.4,1.5v0.3c0.9-0.2,1.9-0.3,2.9-0.4C199.1,110.4,198.5,110.3,197.7,110.3z"/>
<path class="st1" d="M202.6,124.3c-0.5-0.4-0.9-1-1.1-1.7c-0.8,0.7-2.5,2.2-6.2,2.2c-4.4,0-5.4-2.7-5.4-4.8c0-2.6,1.3-3.6,2.2-4.2
	c3-1.9,6.8-2.1,9.1-2.1v-1.3c0-0.9,0-4.1-3.5-4.1c-3.2,0-3.4,2.8-3.4,3.5h-3.7c0.3-3.9,4-5.2,7-5.2c2.3,0,7,0.7,7,6.3v8.1
	c0,0.4,0.1,2,0.6,3.2L202.6,124.3L202.6,124.3z M201.1,115.2c-2,0-7.8,0.1-7.8,4.6c0,3.1,2.8,3.1,3.3,3.1c0.2,0,2.8,0,4.5-2V115.2z"
	/>
<polygon class="st0" points="222.2,126.3 217.9,119.6 217.9,126.3 210.5,126.3 210.5,97.5 217.9,97.5 217.9,109.3 223.2,105.2 
	233,105.2 222.4,113.2 231.4,126.3 "/>
<path class="st1" d="M219.7,112.7l7.9,11.6h-4.3l-6.3-9.8l-1.1,1v8.8h-3.4V99.5h3.4v13.8l8-6.1h3.1L219.7,112.7z"/>
<path class="st0" d="M239.2,126.8c-5.5,0-7.4-3.5-7.4-6.8c0-3.8,2.2-5.3,3.1-5.9c0.2-0.1,0.4-0.2,0.6-0.3h-3.1l0.2-2.2
	c0.4-4.9,4.8-7,9-7c5.6,0,9,3.2,9,8.3v8.1c0,0.3,0.1,1.6,0.4,2.4l1.1,2.7l-6.2,0.2l-0.6-0.5c-0.1-0.1-0.3-0.2-0.4-0.4
	C243.6,126.2,241.8,126.8,239.2,126.8z M243.1,117.3c-3.8,0.4-3.8,1.9-3.8,2.5c0,0.6,0,1.1,1.3,1.1c0.1,0,1.4,0,2.5-0.8V117.3z
	 M241.6,110.3c-0.5,0-1.4,0-1.4,1.5v0.3c0.9-0.2,1.9-0.3,2.9-0.4C243,110.4,242.4,110.3,241.6,110.3z"/>
<path class="st1" d="M246.5,124.3c-0.5-0.4-0.9-1-1.1-1.7c-0.8,0.7-2.5,2.2-6.2,2.2c-4.4,0-5.4-2.7-5.4-4.8c0-2.6,1.3-3.6,2.2-4.2
	c3-1.9,6.8-2.1,9.1-2.1v-1.3c0-0.9,0-4.1-3.5-4.1c-3.2,0-3.4,2.8-3.4,3.5h-3.7c0.3-3.9,4-5.2,7-5.2c2.3,0,7,0.7,7,6.3v8.1
	c0,0.4,0.1,2,0.6,3.2L246.5,124.3L246.5,124.3z M245.1,115.2c-2,0-7.8,0.1-7.8,4.6c0,3.1,2.8,3.1,3.3,3.1c0.2,0,2.8,0,4.5-2V115.2z"
	/>
<path class="st0" d="M265,126.3v-14c0-0.1,0-1.9-1-1.9c0,0-1.4,0.1-2.3,2.3v13.6h-7.4v-21.2h7.2l0,0.3c1-0.5,2.1-0.8,3.6-0.8
	c3.4,0,7.4,2.1,7.4,8.1v13.6H265z"/>
<path class="st1" d="M267,112.3c0-1.6-0.7-3.9-3-3.9c-0.8,0-3.1,0.6-4.3,3.9v12h-3.4v-17.2h3.3l0.1,2.6c0.8-1.1,2.2-3.1,5.4-3.1
	c2.7,0,5.4,1.6,5.4,6.1v11.6H267V112.3z"/>
<path class="st0" d="M285.4,126.8c-4.6,0-9.6-3.5-9.6-11.1c0-7.6,5-11.1,9.6-11.1s9.6,3.5,9.6,11.1C295,123.3,290,126.8,285.4,126.8
	z M285.4,110.3c-1.4,0-1.9,3-1.9,5.5v0.1l0,0.1c-0.1,1,0.1,3.8,1.1,4.9c0.2,0.3,0.5,0.4,0.8,0.4c1.2,0,1.9-2.2,1.9-5.9
	C287.3,112.8,286.6,110.3,285.4,110.3z"/>
<path class="st1" d="M285.4,124.8c-3.3,0-7.6-2.3-7.6-9.1s4.3-9.1,7.6-9.1c3.2,0,7.6,2.3,7.6,9.1S288.6,124.8,285.4,124.8z
	 M285.4,123.2c3.9,0,3.9-6.2,3.9-7.9c0-4-1.3-7-3.9-7c-3.9,0-3.9,6.3-3.9,7.5C281.4,116.9,281.4,123.2,285.4,123.2z"/>
<path class="st0" d="M326.2,126.8c-8.4,0-13.2-5.4-13.2-14.8c0-9.4,4.9-15,13.2-15c3.8,0,6.8,1.1,8.9,3.3c1.7,1.7,2.2,3.1,2.8,5.7
	l0.5,2.4h-8.2l-0.3-1.7c-0.5-3.2-1.4-4.1-4-4.1c-1.4,0-4.6,0-4.6,9.2s3.1,9.2,4.8,9.2c1.8,0,3.6-0.5,3.9-4.5l0.2-1.8l8.2,0l-0.4,2.3
	C337,123.3,332.7,126.8,326.2,126.8z"/>
<path class="st1" d="M336,116.8c-1.1,7-6.5,8-9.8,8c-8.9,0-11.2-6.7-11.2-12.8c0-5.8,2.2-13,11.2-13c3.4,0,5.8,1,7.4,2.7
	c1.4,1.4,1.8,2.5,2.3,4.8h-4c-0.5-3.2-1.6-5.8-6-5.8c-3.1,0-6.6,1.5-6.6,11.2c0,11.2,4.7,11.2,6.8,11.2c2.9,0,5.5-1.4,5.9-6.3
	L336,116.8L336,116.8z"/>
<path class="st0" d="M342.2,126.3v-21.2h7.4v21.2H342.2z M342.2,105v-7.5h7.4v7.5H342.2z"/>
<path class="st1" d="M344.2,99.5h3.4v3.5h-3.4V99.5z M344.2,107.1h3.4v17.2h-3.4V107.1z"/>
<path class="st0" d="M361.8,126.8c-2.8,0-5.7-1.6-5.7-6.1v-10.1h-3v-5.5h3v-3.8l7.4-2.6v6.4h3.8v5.5h-3.8v8.1l0.1,2
	c0,0.1,0,0.1,0,0.2c0.1-0.1,0.4-0.3,0.4-0.3l2.1-1.4l1.9,5.1l-1.2,0.9C365.4,126.2,363.6,126.8,361.8,126.8z"/>
<path class="st1" d="M361.6,120.7c0,0.6,0,2.4,1.6,2.4c0.9,0,1.6-0.6,1.9-0.8l0.5,1.3c-1.1,0.8-2.5,1.2-3.8,1.2
	c-1.1,0-3.7-0.3-3.7-4.1v-12.1h-3v-1.5h3v-4.4l3.4-1.2v5.6h3.8v1.5h-3.8v12.1H361.6z"/>
<polygon class="st0" points="373.2,130.6 376.7,122.8 368,105.1 376.4,105.1 380.5,113.7 384,105.1 390.4,105.1 379.7,130.6 "/>
<path class="st1" d="M378.9,122.8l-7.7-15.7h3.9l5.5,11.6l4.7-11.6h2.1l-9,21.5h-2.1L378.9,122.8z"/>
<polygon class="st0" points="407.3,126.4 407.3,97.5 415.1,97.5 415.1,120.7 428.5,120.7 428.5,126.4 "/>
<path class="st1" d="M413.1,122.7h13.4v1.7h-17.2V99.5h3.8L413.1,122.7L413.1,122.7z"/>
<path class="st0" d="M432.1,126.3v-21.2h7.4v21.2H432.1z M432.1,105v-7.5h7.4v7.5H432.1z"/>
<path class="st1" d="M434.1,99.5h3.4v3.5h-3.4V99.5z M434.1,107.1h3.4v17.2h-3.4V107.1z"/>
<path class="st0" d="M454.2,127c-0.8,0-1.8-0.1-2.8-0.5H444v-29h7.5v7.8c0.9-0.4,1.8-0.5,2.8-0.5c3.2,0,8.5,2.4,8.5,11.2
	C462.8,123.5,458.3,127,454.2,127z M451.5,119.7c0.5,1.1,0.9,1.4,1.7,1.4c1.7,0,1.9-3.4,1.9-5.5c0-2.7-0.3-3.7-0.8-4.4l0-0.1l0-0.1
	c-0.2-0.4-0.7-0.7-0.9-0.7c-0.2,0-1.4,0.1-1.9,2.4V119.7z"/>
<path class="st1" d="M449.5,99.5v10c1.3-1.8,2.8-2.8,4.8-2.8c0.8,0,6.5,0.3,6.5,9.2c0,6.7-3.8,9.1-6.6,9.1c-2.8,0-4.2-1.8-4.7-2.5v2
	H446v-25C446,99.5,449.5,99.5,449.5,99.5z M449.5,120.1c0.5,1.1,1.3,3,3.7,3c3.9,0,3.9-5.8,3.9-7.5c0-2.9-0.3-4.3-1.1-5.5
	c-0.5-0.9-1.6-1.7-2.6-1.7c-1.1,0-3.2,0.7-3.9,4.2V120.1z"/>
<path class="st0" d="M466,126.2V105h7.4v0.3c1-0.4,2.3-0.7,4.1-0.7l2,0v7.2h-2c-3.2,0-3.7,0.3-4.1,1.3v13.1H466z"/>
<path class="st1" d="M477.5,109.8c-4.6,0-5.3,0.9-6.1,2.9v11.5H468V107h3.4v3.3c0.9-2,1.7-3.6,6.1-3.7V109.8z"/>
<path class="st0" d="M489,126.8c-5.5,0-7.4-3.5-7.4-6.8c0-3.8,2.2-5.3,3.1-5.9c0.2-0.1,0.4-0.2,0.6-0.3h-3.1l0.2-2.2
	c0.4-4.9,4.8-7,9-7c5.6,0,9,3.2,9,8.3v8.1c0,0.3,0.1,1.6,0.4,2.4l1.1,2.7l-6.2,0.2l-0.6-0.5c-0.1-0.1-0.3-0.2-0.4-0.4
	C493.4,126.2,491.6,126.8,489,126.8z M492.8,117.3c-3.8,0.4-3.8,1.9-3.8,2.5c0,0.6,0,1.1,1.3,1.1c0.1,0,1.4,0,2.5-0.8V117.3z
	 M491.4,110.3c-0.5,0-1.4,0-1.4,1.5v0.3c0.9-0.2,1.9-0.3,2.9-0.4C492.8,110.4,492.2,110.3,491.4,110.3z"/>
<path class="st1" d="M496.3,124.3c-0.5-0.4-0.9-1-1.1-1.7c-0.8,0.7-2.5,2.2-6.2,2.2c-4.4,0-5.4-2.7-5.4-4.8c0-2.6,1.3-3.6,2.2-4.2
	c3-1.9,6.8-2.1,9.1-2.1v-1.3c0-0.9,0-4.1-3.5-4.1c-3.2,0-3.4,2.8-3.4,3.5h-3.7c0.3-3.9,4-5.2,7-5.2c2.3,0,7,0.7,7,6.3v8.1
	c0,0.4,0.1,2,0.6,3.2L496.3,124.3L496.3,124.3z M494.8,115.2c-2,0-7.8,0.1-7.8,4.6c0,3.1,2.8,3.1,3.3,3.1c0.2,0,2.8,0,4.5-2V115.2z"
	/>
<path class="st0" d="M504.1,126.2V105h7.4v0.3c1-0.4,2.3-0.7,4.1-0.7l2,0v7.2h-2c-3.2,0-3.7,0.3-4.1,1.3v13.1H504.1z"/>
<path class="st1" d="M515.6,109.8c-4.6,0-5.3,0.9-6.1,2.9v11.5h-3.4V107h3.4v3.3c0.9-2,1.7-3.6,6.1-3.7V109.8z"/>
<polygon class="st0" points="523.1,130.6 526.6,122.8 517.9,105.1 526.3,105.1 530.4,113.7 533.9,105.1 540.3,105.1 529.6,130.6 "/>
<path class="st1" d="M528.8,122.8l-7.7-15.7h3.9l5.5,11.6l4.7-11.6h2.1l-9,21.5h-2.1L528.8,122.8z"/>
<path class="st0" d="M38.3,90c-5.1-0.2-8.7-2.6-10.6-6.9l-0.1-0.3l0-0.3c-0.1-0.8-0.3-1.6-0.8-2.6c-0.2-0.4-0.4-0.8-0.5-1.2
	c-0.3-0.7-0.6-1.4-0.9-2c-0.7-1.2-1.6-1.9-3-2.2c-0.7-0.1-1.5-0.1-2.2-0.1c-0.6,0-1.1,0-1.7,0.1c-0.6,0-1.1,0.1-1.7,0.1
	c-0.9,0.1-1.9,0.1-2.9,0.1c-0.8,0-1.6,0-2.3-0.1C7.4,74,4.4,72,2.5,68.5c-0.6-1.1-1.1-2.4-1.5-4L1,64.3v-3.5l0-0.2
	c0.7-3,2.1-5.5,3.4-8c0.1-0.1,0.1-0.3,0.2-0.5c0.1-0.3,0.2-0.5,0.3-0.7c1.8-3.3,1.8-6.5,0.1-9.9c-0.3-0.7-0.7-1.3-1-2
	c-0.8-1.6-1.7-3.3-2.3-5.2C0.6,30.5,1,26.7,3.2,23.1c1.2-2.2,3.3-3.6,6-4c0.9-0.1,1.6-0.1,2.3-0.1c0.7,0,1.5,0,2.2,0.1
	c0.6,0,1.3,0.1,1.9,0.1c0.7,0,1.3,0,1.8-0.1c4.1-0.5,6.8-1.7,8.8-3.9c1.1-1.2,2-2.6,2.8-4.6l0.1-0.1c1.3-2.6,3.7-6.1,8.4-7l0.2,0
	h4.4l0.3,0.2c0.1,0,0.3,0.1,0.4,0.1c2.8,0.7,5,2.3,6.3,4.7l0.3,0.6c0.5,0.9,1.1,2,1.5,3c2.1,4.3,5.7,6.6,11.1,7c0.5,0,1,0.1,1.5,0.1
	c0.6,0,1.2,0,1.9,0c0.7,0,1.4,0,2.1,0c0.4,0,0.7,0,1.1,0c0,0,0,0,0,0c3.6,0,6.4,1.8,8,5.1c1.9,4,2,8.1,0.1,12.2
	c-0.9,1.9-1.8,3.9-2.8,5.8c-1.4,3-1.4,5.9,0,8.8c0.1,0.3,0.3,0.6,0.4,0.8c0.2,0.3,0.3,0.6,0.5,0.9l0.2,0.4c1.3,2.4,2.5,4.9,3.2,7.8
	l0,0.2v3.5l-0.1,0.2c-0.1,0.5-0.2,0.9-0.3,1.2c-1.4,4.5-4.2,7.3-8.4,8.3c-1.2,0.3-2.4,0.4-3.9,0.4c-0.6,0-1.2,0-1.8-0.1
	c-0.5,0-0.9-0.1-1.4-0.1c-1.1-0.1-2.1-0.1-3.1-0.1c-0.3,0-0.7,0-1,0c-2.3,0.1-3.8,1-4.7,3l-0.9,2l-0.2,0.4c-0.5,1.2-1,2.5-1.7,3.7
	c-0.3,0.5-0.6,1.1-1.1,1.7l-0.1,0.2l-0.1,0.1c-0.6,0.7-1.3,0.9-1.8,0.9c-0.3,0-0.7-0.1-1-0.2c-0.3-0.2-1.3-0.8-1.3-2.2V66.8
	c0-1.7,0.7-2.8,2.2-3.3c7.6-3.6,11.9-12,10.2-20c-1.6-7.5-5.9-12.3-13.2-14.6v58c0,1.6-1,2.7-2.6,3C41,90,39.7,90,38.3,90L38.3,90z
	 M34.4,28.7c-7.3,2.1-12.9,8.8-13.5,16.2c-0.7,9,4.9,17.1,13.5,19.6V28.7z"/>
<path class="st2" d="M37.9,5.3c1.3,0,2.6,0,3.8,0c0.2,0.1,0.4,0.1,0.6,0.2c2.3,0.5,4.1,1.8,5.2,3.8c0.6,1.1,1.3,2.3,1.8,3.5
	c2.6,5.3,7.1,7.7,12.7,8.2c2.2,0.2,4.4-0.1,6.7,0c2.9,0,5,1.3,6.3,4c1.7,3.5,1.7,7,0.1,10.5c-0.9,1.9-1.8,3.8-2.8,5.7
	c-1.7,3.5-1.8,7.1,0,10.6c0.3,0.6,0.6,1.1,0.9,1.7c1.3,2.5,2.6,4.9,3.2,7.7c0,1,0,2,0,3c-0.1,0.4-0.2,0.8-0.3,1.1
	c-1.1,3.6-3.2,6.1-7,7c-1.7,0.4-3.4,0.4-5.1,0.3c-1.9-0.1-3.8-0.3-5.7-0.2c-2.9,0.1-5.1,1.4-6.4,4.1c-0.3,0.7-0.6,1.4-0.9,2.1
	c-0.5,1.3-1,2.7-1.7,3.9c-0.3,0.5-0.6,1-1,1.6c-0.1,0.1-0.2,0.3-0.4,0.2c-0.2-0.1-0.2-0.3-0.2-0.4s0-0.3,0-0.4c0-5.6,0-11.1,0-16.7
	c0-0.8,0.2-1.2,1-1.5C57.1,61.4,62,52,60.1,43c-1.8-8.6-7.1-14-15.5-16.4c-1.6-0.5-1.7-0.4-1.7,1.2c0,19.3,0,38.7,0,58
	c0,0.3,0,0.7,0,1c0,0.6-0.3,0.9-0.9,1C40.8,88,39.6,88,38.4,88c-4.1-0.2-7.2-1.9-8.9-5.7c-0.1-1.2-0.5-2.3-1-3.3
	c-0.5-1.1-0.9-2.2-1.5-3.3c-1-1.7-2.4-2.8-4.4-3.2c-1.5-0.2-2.9-0.2-4.4-0.1c-2.2,0.1-4.3,0.4-6.5,0.1c-3.3-0.4-5.8-1.9-7.4-4.9
	c-0.6-1.1-1-2.3-1.3-3.5c0-1,0-2,0-3c0.6-2.7,1.9-5.1,3.2-7.5c0.2-0.4,0.4-0.9,0.6-1.3c2.1-3.9,2.1-7.7,0.1-11.7
	c-1.1-2.3-2.4-4.5-3.2-6.9c-1.1-3.4-0.6-6.6,1.2-9.6c1-1.8,2.6-2.8,4.6-3.1c0.7-0.1,1.3-0.1,2-0.1c2.1,0,4.1,0.3,6.2,0
	c3.8-0.5,7.3-1.6,10-4.5c1.4-1.5,2.4-3.3,3.2-5.2C32.4,8.3,34.4,5.9,37.9,5.3z M36.4,46.6c0-6.4,0-12.9,0-19.3c0-1-0.1-1.1-1-0.9
	c-8.8,1.8-15.8,9.5-16.5,18.4c-0.8,10.4,6,19.6,16.1,22c1.3,0.3,1.4,0.2,1.4-1.1C36.4,59.3,36.4,53,36.4,46.6z"/>
</svg>
